<?xml version="1.0" encoding="UTF-8" standalone="no"?>
<!DOCTYPE svg PUBLIC "-//W3C//DTD SVG 1.1//EN" "http://www.w3.org/Graphics/SVG/1.1/DTD/svg11.dtd">
<svg width="100%" height="100%" viewBox="0 0 256 256" version="1.1" xmlns="http://www.w3.org/2000/svg" xmlns:xlink="http://www.w3.org/1999/xlink" xml:space="preserve" xmlns:serif="http://www.serif.com/" style="fill-rule:evenodd;clip-rule:evenodd;stroke-linejoin:round;stroke-miterlimit:2;">
    <g transform="matrix(0.550279,-0.834981,0.834981,0.550279,-49.3133,164.442)">
        <g>
            <path d="M21.9,71.6C21.9,71.6 43.4,38.1 77.4,20.2C111.4,2.3 153.3,7.4 180.7,24.8C208.2,42.2 217.4,56.9 217.4,56.9L241.1,43.3C241.1,43.3 246,40.8 246,46.6L246,132C246,132 246,139.6 240.3,136.9C235.5,134.6 183.5,104.8 167.2,95.4C158.2,91.4 166.1,88.1 166.1,88.1L188.9,74.9C188.9,74.9 175.9,58.4 156.8,49.7C136.4,39 117.3,37.8 93.9,46.7C78.7,52.5 60.7,67.4 47.8,89.4L21.9,71.6Z" style="fill:white;fill-rule:nonzero;"/>
            <path d="M234.1,184.4C234.1,184.4 212.6,217.9 178.6,235.8C144.6,253.7 102.7,248.6 75.3,231.2C47.8,213.8 38.6,199.1 38.6,199.1L14.9,212.7C14.9,212.7 10,215.2 10,209.4L10,124C10,124 10,116.4 15.7,119.1C20.5,121.4 72.5,151.2 88.8,160.6C97.8,164.6 89.9,167.9 89.9,167.9L67.1,181.1C67.1,181.1 80.1,197.6 99.2,206.3C119.6,217 138.7,218.3 162.1,209.4C177.3,203.6 195.3,188.7 208.2,166.7L234.1,184.4Z" style="fill:white;fill-rule:nonzero;"/>
        </g>
    </g>
</svg>
